<svg width="93" height="93" viewBox="0 0 93 93" fill="none" xmlns="http://www.w3.org/2000/svg">
<path d="M69.75 34.875C69.7164 34.875 69.6841 34.8789 69.6531 34.8866C69.182 28.3755 66.1998 22.3021 61.3358 17.9481C56.4719 13.594 50.1066 11.2998 43.5833 11.5497C37.0599 11.7996 30.8888 14.5739 26.3722 19.2873C21.8555 24.0007 19.3467 30.2845 19.375 36.8125C19.3826 38.7961 19.6246 40.7718 20.0957 42.6986C19.8516 42.687 19.623 42.625 19.375 42.625C15.2641 42.625 11.3217 44.258 8.41485 47.1648C5.50803 50.0717 3.875 54.0141 3.875 58.125C3.875 62.7827 5.97138 66.9096 9.2225 69.75H81.2704C86.0095 66.2199 89.125 60.6166 89.125 54.25C89.125 51.7056 88.6239 49.1862 87.6502 46.8355C86.6765 44.4848 85.2493 42.3489 83.4502 40.5498C81.6511 38.7507 79.5152 37.3235 77.1645 36.3498C74.8138 35.3761 72.2944 34.875 69.75 34.875Z" fill="white"/>
</svg>
